<svg enable-background="new 0 0 512 512" height="512" viewBox="0 0 512 512" width="512" xmlns="http://www.w3.org/2000/svg"><g id="global_map_travel_world_earth"><g><path d="m256 0c-141.386 0-256 114.616-256 255.998 0 141.386 114.614 256.002 256 256.002s256-114.616 256-256.002c0-141.382-114.614-255.998-256-255.998z" fill="#520000"/><path d="m500.688 238.681c-2.496 2.391-9.056 7.448-10.617 7.458h-.002c-3.281 0-7.584-8.071-10.725-13.966-2.058-4.504-7.617-10.954-7.047-18.882-.793-21.876-15.25-16.982-6.328-39.064 1.617-4.624 1.299-14.304.215-24.911 3.043-1.418 5.891-2.866 8.512-4.347 14.525 28.494 23.64 60.182 25.992 93.712z" fill="#5d7800"/><path d="m472.443 140.675c-2.119 1.198-4.405 2.376-6.83 3.534-.836-6.966-1.911-14.038-2.913-20.128 3.454 5.394 6.71 10.926 9.743 16.594z" fill="#5d7800"/><path d="m456.793 115.267c1.893 10.192 3.563 21.16 4.587 30.879-11.205 4.911-25.131 9.43-41.26 13.47-13.951-29.021-34.024-61.462-73.62-101.992 13.092-3.53 24.104-8.128 31.854-14.17 31.082 17.961 57.872 42.549 78.439 71.813z" fill="#009ddf"/><path d="m149.771 74.503c2.571-3.164 5.219-6.328 7.959-9.51 32.449 6.882 61.816 5.728 64.765 5.626-6.64 29.334-13.903 67.052-19.337 110.248-20.437-.158-38.922-1.282-55.545-3.013-3.135-6.281-29.987-27.329-19.127-46.405 1.953-3.094 28.935-34.99 21.285-56.946z" fill="#93bd00"/><path d="m197.427 185.635c-14.121 13.214-15.449 26.057-12.223 32.796 2.563 5.351 7.802 8.694 12.948 10.771-.317 3.882-.617 7.788-.894 11.728-19.11-4.184-37.286-17.405-37.659-26.33-.523-12.563-4.631-23.518-8.916-31.512 14.225 1.355 29.793 2.269 46.744 2.547z" fill="#93bd00"/><path d="m189.568 216.339c-2.432-5.076-.336-18.154 12.714-28.275-1.393 11.67-2.647 23.707-3.712 36.075-3.752-1.701-7.271-4.188-9.002-7.8z" fill="#bfecff"/><path d="m201.722 246.619c17.261.382 20.884 14.072 35.903 29.724 9.232 8.172 30.227 17.134 30.427 20.354.01.036-4.25 6.91-6.336 19.149-20.455.216-41.205.042-62.123-.286-.113-23.671.684-46.747 2.129-68.941z" fill="#009ddf"/><path d="m271.872 299.791c4.206-6.376-5.222-11.054-13.171-15.548-5.789-3.272-12.348-6.98-18.001-11.636-7.966-6.513-18.28-31.253-38.651-30.824.257-3.687.53-7.347.821-10.98 3.782 1.063 6.97 1.486 8.224 1.622 5.686 3.227 14.813 9.612 16.408 13.864 5.12 15.024 26.832 34.5 61.218 21.044 12.472-4.88 27.354-4.324 39.111-.142 1.054 14.985 1.616 30.374 1.538 46.082-20.471 1.479-41.424 2.222-62.71 2.516 1.284-6.64 3.251-13.248 5.213-15.998z" fill="#5d7800"/><path d="m286.956 262.827c-31.425 12.302-49.819-4.628-54.924-18.236-2.794-7.448-19.477-16.89-19.477-16.89s-4.6-.41-9.278-1.816c1.171-13.808 2.573-27.226 4.149-40.156.317 0 4.191-.016 10.422-.088 11.602 1.656 30.107 18.65 37.539 18.668 2.865 0 12.829-.018 1.49-19.523 20.24-.656 42.738-1.767 59.289-3.632 4.957 24.857 9.022 52.048 11.28 80.819-11.954-3.772-27.126-4.374-40.49.854z" fill="#009ddf"/><path d="m301.986 122.911c5.377 19.134 10.074 38.252 13.191 53.35-24.646 2.933-59.883 3.948-59.883 3.948-.867-5.552 11.712-11.842 16.498-18.652 5.979-7.038 10.853-23.868 12.269-26.983 3.569-7.815 16.451-7.211 17.925-11.663z" fill="#009ddf"/><path d="m294.527 82.767c4.57 1.904 8.717 4.404 11.44 6.582 1.612 1.29 15.144 8.59 15.316 10.066-.028 2.548-16.599 7.326-18.577 8.58-3.018-9.87-5.843-18.426-8.179-25.228z" fill="#5d7800"/><path d="m255.388 199.471c-2.448 0-20.284-11.714-24.715-14.027 6.256-.114 13.414-.274 21.008-.498 8.795 16.623 5.048 14.525 3.707 14.525z" fill="#5d7800"/><path d="m304.128 112.695c6.121-3.112 21.905-6.137 21.994-13.28 0-6.282-12.486-10.092-17.134-13.846-3.527-2.822-9.656-6.5-16.524-8.732-1.702-4.82-2.979-8.268-3.644-10.06 18.676-1.672 36.668-4.068 52.195-7.767 39.213 40.082 58.264 68.928 74.176 101.809-26.888 6.401-59.39 11.518-95.166 14.985-4.679-23.287-10.512-45.109-15.897-63.109z" fill="#009ddf"/><path d="m288.861 80.811c3.287 9.376 6.575 19.688 9.709 30.261-3.078 3.35-1.283 9.6-1.234 10-.876 1.273-13.273 2.06-17.681 11.5-1.514 3.332-7.417 20.686-11.64 25.964-4.093 6.324-18.306 12.796-17.563 21.824-15.317.83-39.69.527-42.387.235 5.478-43.277 19.248-110.186 19.449-110.193-2.642 14.023 3.416 18.078 15.018 22.72 5.291 2.116 9.319 3.614 12.976 3.614 8.786 0 10.683-8.444 10.351-16.992-.068-1.744-.243-4.935.269-5.192 2.935-1.015 19.083 6.061 22.733 6.259z" fill="#5d7800"/><path d="m279.273 72.851c-13.168-4.733-18.744-5.636-18.248 7.082.248 6.422-.162 11.965-5.517 11.965-3.007 0-7.161-1.662-11.181-3.271-9.012-2.812-15.705-7.892-11.518-18.458 16.376-.728 34.19-1.574 51.01-2.96 1.021 2.584 2.048 5.304 3.08 8.124-2.545-.672-5.122-1.582-7.626-2.482z" fill="#009ddf"/><path d="m230.002 65.447c-.652.031-.73.06-1.382.088 2.435-10.47 4.754-19.73 6.832-27.643.245.114 12.694 10.038 12.474 13.536-.011 4.717-9.929 2.807-17.924 14.019z" fill="#5d7800"/><path d="m223.611 65.747c-23.306.926-44.653-1.536-62.086-4.918 6.787-7.304 13.484-13.744 19.873-19.39 21.127 8.554 41.916-.544 41.916-.544s3.072-2.566 7.262-3.471c-2.124 8.119-4.49 17.611-6.965 28.323z" fill="#93bd00"/><path d="m155.99 59.697c-5.033-1.078-9.674-2.216-13.889-3.343-1.126-1.535-2.324-2.84-3.582-3.821 4.719-2.244 16.071-7.42 16.071-7.42 2.285-2.612 13.361-16.225 21.948-5.816-6.63 5.95-13.556 12.724-20.548 20.4z" fill="#93bd00"/><path d="m152.298 63.829c-1.414 1.602-2.798 3.212-4.157 4.826-.744-2.23-1.608-4.402-2.578-6.422 2.158.538 4.398 1.074 6.735 1.596z" fill="#93bd00"/><path d="m145.824 79.441c4.944 14.84-19.485 46.256-21.428 49.424-13.061 21.298 15.826 46.85 16.901 48.294-16.874-1.97-31.718-4.555-44.538-7.384 12.919-36.702 28.208-63.768 49.065-90.334z" fill="#bfecff"/><path d="m144.818 182.495c4.627 7.842 9.41 19.446 9.947 32.306.51 12.242 21.108 26.718 42.164 31.022-1.472 22.42-2.285 45.731-2.175 69.651-50.475-.954-90.276-6.056-119.842-11.834.231-50.869 8.289-93.622 20.209-129.109 14.103 3.112 30.636 5.932 49.697 7.964z" fill="#bfecff"/><path d="m194.786 320.315c.442 49.052 3.467 85.754 7.582 113.159-35.421.198-73.395-3.046-98.877-5.783-23.275-41.658-28.31-88.303-28.577-119.137 29.779 5.767 69.599 10.817 119.872 11.761z" fill="#bfecff"/><path d="m199.625 320.397c17.447.714 39.597.729 61.299.35-.838 6.386-.777 12.194.99 14.846 2.164 3.248 13.764 30.698 15.182 33.818 4.51 9.399 21.985 17.688 21.985 23.764 0 4.574-4.693 22.059-10.748 38.988-34.618 1.014-76.625 1.226-81.138 1.27-4.078-27.079-7.122-63.688-7.57-113.036z" fill="#009ddf"/><path d="m291.732 436.915c8.987-.28 17.324-.616 24.147-1.022-1.298 5.904-2.864 11.45-4.6 16.633-.458.451-28.559 26.92-34.57 32.235-5.972-6.558-2.272-13.722 1.133-18.438 4.536-6.28 9.512-17.526 13.89-29.408z" fill="#5d7800"/><path d="m293.496 432.005c5.957-17.002 10.424-34.082 10.424-38.83 0-10.189-17.71-16.512-22.42-25.766-1.391-3.061-13.143-30.872-15.561-34.5-1.032-1.548-.901-6.538-.095-12.254 24.913-.506 48.713-1.506 63.49-2.546-.575 49.443-5.669 86.038-12.211 112.859-6.69.411-14.833.753-23.627 1.037z" fill="#5d7800"/><path d="m320.949 435.581c6.199-.402 12.465-.874 18.775-1.42-1.736 1.762-19.11 11.412-22.035 13.32 1.156-3.774 2.25-7.742 3.26-11.9z" fill="#5d7800"/><path d="m322.171 430.647c6.483-27.152 11.459-63.822 12.007-112.891 20.498-1.104 41.65-3.976 60.639-7.434 19.728 4.598 33.426 8.018 24.047 28.023-4.313 9.202-6.601 16.977-8.621 23.838-3.93 13.349-6.524 22.168-21.043 29.694-28.875 15.437-15.448 25.598-36.6 36.194-10.246 1.066-20.422 1.91-30.429 2.576z" fill="#5d7800"/><path d="m332.834 269.349c2.211.803 6.687 5.521 18.388 9.44 16.563 6.288 19.136 8.07 21.296 15.696 1.252 4.43 2.661 9.386 11.137 12.75-16.09 2.51-32.598 4.354-49.446 5.674.062-14.826-.432-29.372-1.375-43.56z" fill="#5d7800"/><path d="m391.426 396.175c16.352-8.478 19.332-18.605 23.459-32.626 1.971-6.693 4.203-14.28 8.359-23.147 6.291-13.42 6.086-26.221-16.981-32.278 16.44-3.336 30.59-6.952 40.278-9.946-.295 52.946-13.979 92.042-30.873 120.156-17.294 3.704-34.917 6.478-52.418 8.56 10.742-8.027 6.63-19.999 28.176-30.719z" fill="#009ddf"/><path d="m394.836 305.363c-15.702-3.218-16.398-7.719-17.664-12.194-2.848-10.062-7.404-12.516-24.232-18.904-8.883-2.722-16.927-9.193-20.506-10.447-2.222-29.606-6.351-57.582-11.424-83.116 36.362-3.494 69.192-8.7 96.362-15.28 16.657 35.824 28.614 78.482 29.164 127.51-16.598 5.191-33.876 9.253-51.7 12.431z" fill="#009ddf"/><path d="m373.741 40.861c-7.689 5.47-18.472 9.644-31.228 12.861-18.966-18.306-36.456-31.699-48.357-40.048 28.432 4.459 55.257 13.821 79.585 27.187z" fill="#009ddf"/><path d="m283.455 12.247c10.435 6.842 30.723 21.191 53.45 42.802-14.899 3.311-32.05 5.492-49.843 7.04-9.277-24.496-17.532-42.26-21.908-51.198 6.16.226 12.264.68 18.301 1.356z" fill="#009ddf"/><path d="m259.689 10.749c3.825 7.668 12.461 25.778 22.357 51.758-14.919 1.194-30.752 1.98-45.412 2.645 4.545-5.612 15.311-5.717 16.12-13.418.707-8.217-13.219-17.54-16.048-18.564 2.725-10.146 4.938-17.652 6.301-22.122 4.305-.229 15.454-.319 16.682-.299z" fill="#009ddf"/><g fill="#bfecff"><path d="m237.854 11.375c-1.414 4.702-3.479 11.813-5.951 21.042-5.177.202-9.763 3.313-11.008 4.23-1.674.626-18.158 7.195-35.188 1.063 13.974-11.84 26.139-19.732 33.994-24.318 5.984-.891 12.035-1.569 18.153-2.017z"/><path d="m207.015 15.619c-7.517 4.979-16.67 11.67-26.627 20.282-14.026-12.208-21.979-.65-28.95 5.174-1.443.68-22.525 10.722-23.002 11.231-2.248-.737-4.222-1.42-5.897-2.021 25.329-16.49 53.873-28.438 84.476-34.666z"/><path d="m117.572 53.605c4.113 1.567 11.598 4.216 21.656 6.972 2.04 3.24 3.965 7.689 5.276 12.49-36.499 45.25-51.825 93.288-52.633 95.598-32.474-7.603-51.048-16.474-56.691-19.426 18.73-38.586 47.288-71.548 82.392-95.634z"/><path d="m33.105 153.643c6.179 3.288 24.738 12.183 57.16 19.78-13.096 39.254-19.872 82.648-20.172 129.248-31.45-6.462-50.414-13.504-57.529-16.43-7.184-53.464 6.17-101.428 20.541-132.598z"/><path d="m13.313 291.745c8.907 3.468 27.67 9.928 56.758 15.85.166 30.66 4.938 77.23 27.543 119.45-8.653-.974-15.422-1.832-19.557-2.378-33.962-35.813-57.252-81.834-64.744-132.922z"/><path d="m83.525 430.247c4.494.562 10.25 1.25 16.965 1.984 5.63 9.771 12.283 19.248 20.088 28.193-13.318-8.853-25.727-18.967-37.053-30.177z"/><path d="m137.214 470.553c-12.545-11.458-22.635-24.254-30.721-37.678 30.81 4.076 95.327 5.436 96.624 5.426 5.043 31.274 11.492 49.666 16.836 60.344-29.625-4.382-57.535-14.082-82.739-28.092z"/></g><path d="m225.729 499.433c-5.184-9.246-12.281-27.22-17.777-61.168 4.305-.04 44.742-.246 78.583-1.195-4.071 10.806-8.576 20.83-12.612 26.42-11.262 15.594-1.22 25.702 3.041 27.494 0 0 19.604-17.24 30.143-27.351-7.527 17.935-16.555 30.174-21.532 35.88-9.699 1.17-31.88 3.06-59.846-.08z" fill="#009ddf"/><path d="m292.843 498.533c4.95-6.468 14.386-20.828 22.166-42.898 5.283-4.598 35.803-22.126 38.897-22.826 19.33-2.025 38.926-4.84 58.184-8.773-18.637 29.324-42.746 47.478-60.049 57.672-18.666 7.973-38.512 13.695-59.198 16.825z" fill="#009ddf"/><path d="m380.476 467.291c10.859-9.38 26.192-24.638 38.341-44.68 7.377-1.616 14.683-3.416 21.903-5.391-17.238 19.723-37.576 36.665-60.244 50.071z" fill="#009ddf"/><path d="m446.309 410.587c-7.908 2.32-15.939 4.424-24.07 6.288 3.812-6.668 29.887-52.408 29.16-120.236 17.578-5.714 33.802-12.582 49.084-20.676-4.11 50.79-23.758 97.25-54.174 134.624z" fill="#009ddf"/><path d="m451.335 291.393c-.667-42.491-8.226-80.384-29.049-127.191 15.26-3.891 28.582-8.23 39.58-12.954.823 9.729.838 17.658-.464 21.38-9.582 23.46 6.766 24.572 6.064 40.926-.3 11.225 6.261 16.674 7.607 20.896 4.33 8.124 8.809 16.525 14.994 16.527h.002c3.451 0 8.926-4.602 10.959-6.493.614 10.764.117 21.042-.153 25.756-15.672 8.477-32.219 15.459-49.54 21.153z" fill="#009ddf"/></g></g><g id="Capa_1"/></svg>